<!-- icon666.com - MILLIONS vector ICONS FREE --><svg viewBox="0 0 32 32" xmlns="http://www.w3.org/2000/svg"><g id="Arrow_Gymph" data-name="Arrow Gymph"><path d="m27.644 29.502h-22.8803a2.5026 2.5026 0 0 1 -2.5-2.5v-2.72a2.5026 2.5026 0 0 1 2.5-2.5h1.36a1.6216 1.6216 0 0 1 1.62 1.62.621.621 0 0 0 .62.62h15.68a.6211.6211 0 0 0 .62-.62 1.6215 1.6215 0 0 1 1.62-1.62h1.36a2.5026 2.5026 0 0 1 2.5 2.5v2.72a2.5026 2.5026 0 0 1 -2.4997 2.5zm-22.88-6.72a1.5016 1.5016 0 0 0 -1.5 1.5v2.72a1.5016 1.5016 0 0 0 1.5 1.5h22.88a1.5016 1.5016 0 0 0 1.5-1.5v-2.72a1.5016 1.5016 0 0 0 -1.5-1.5h-1.36a.6205.6205 0 0 0 -.62.62 1.6218 1.6218 0 0 1 -1.62 1.62h-15.6802a1.6217 1.6217 0 0 1 -1.62-1.62.6206.6206 0 0 0 -.62-.62z"></path><path d="m16.2041 21.6445a1.8179 1.8179 0 0 1 -1.1372-.4013l-7.0908-5.6719a3.1253 3.1253 0 0 1 -1.1782-2.4522 2.9222 2.9222 0 0 1 4.5629-2.4228l1.9992 1.3564-.7242-5.4189a3.5754 3.5754 0 0 1 .1143-1.84 3.669 3.669 0 0 1 6.9077-.0009 3.6106 3.6106 0 0 1 .1109 1.8623l-.7037 5.3857 1.982-1.3447a2.9222 2.9222 0 0 1 4.563 2.418 3.1292 3.1292 0 0 1 -1.1783 2.457l-7.0908 5.6719a1.8174 1.8174 0 0 1 -1.1368.4014zm-6.481-10.457a1.9158 1.9158 0 0 0 -.9028.2285 1.8927 1.8927 0 0 0 -1.0224 1.6983 2.1294 2.1294 0 0 0 .8032 1.6757l7.0908 5.6719a.8122.8122 0 0 0 1.0239 0l7.0908-5.6719a2.13 2.13 0 0 0 .8033-1.6709 1.9219 1.9219 0 0 0 -3.0015-1.5947l-2.9028 1.9688a.5.5 0 0 1 -.7764-.4786l.8516-6.5117a2.6709 2.6709 0 0 0 -.0645-1.372 2.6689 2.6689 0 0 0 -5.0249 0 2.631 2.631 0 0 0 -.0679 1.3491l.8755 6.5478a.5.5 0 0 1 -.7763.48l-2.9234-1.9834a1.9109 1.9109 0 0 0 -1.0762-.3369z"></path></g></svg>